<svg width="163" height="77" viewBox="0 0 163 77" fill="black" xmlns="http://www.w3.org/2000/svg">
<path d="M6.515 63.223C6.515 62.4295 7.295 61.641 9.64 61.641C11.595 61.641 12.4 62.4295 12.635 62.8288C13 63.4858 13.42 63.8801 14.2 63.8801H17.455C18.105 63.8801 18.495 63.4858 18.495 62.8288C18.495 60.1955 15.63 57.2943 9.64 57.2943C3.26 57.2943 0.525002 60.0641 0.525002 63.223C0.525002 70.5972 13.155 68.0953 13.155 70.7286C13.155 71.5171 12.245 72.437 9.64 72.437C7.035 72.437 6.255 71.6485 5.865 70.9914C5.5 70.3597 5.08 69.9351 4.3 69.9351H1.045C0.394998 69.9351 0 70.3293 0 70.9914C0 73.8876 2.865 76.7837 9.64 76.7837C16.285 76.7837 19.15 73.8876 19.15 70.7286C19.15 63.3544 6.515 65.8563 6.515 63.223Z"/>
<path d="M40.8998 64.5371C40.8998 60.7211 38.0348 57.825 31.9148 57.825H22.7948C22.2748 57.825 21.8848 58.2192 21.8848 58.7449V75.3331C21.8848 75.8638 22.2748 76.258 22.7948 76.258H26.7048C27.2248 76.258 27.6148 75.8638 27.6148 75.3331V71.2543H31.9148C38.0348 71.2543 40.8998 68.3582 40.8998 64.5371ZM27.6148 67.039V62.0352H31.9148C33.8648 62.0352 34.9098 63.0916 34.9098 64.5371C34.9098 65.9877 33.8648 67.039 31.9148 67.039H27.6148Z"/>
<path d="M53.4051 72.437C50.5401 72.437 48.7151 70.5972 48.7151 67.039C48.7151 63.4858 50.5401 61.641 53.4051 61.641C56.2701 61.641 58.0951 63.4858 58.0951 67.039C58.0951 70.5972 56.2701 72.437 53.4051 72.437ZM53.4051 57.2943C46.5001 57.2943 42.7251 61.1154 42.7251 67.039C42.7251 72.9626 46.5001 76.7837 53.4051 76.7837C60.3101 76.7837 64.0851 72.9626 64.0851 67.039C64.0851 61.1154 60.3101 57.2943 53.4051 57.2943Z"/>
<path d="M82.58 68.0953C82.58 68.0953 86.095 67.3018 86.095 63.8801C86.095 60.5897 83.36 57.825 77.63 57.825H68.125C67.6 57.825 67.21 58.2192 67.21 58.7449V75.3331C67.21 75.8638 67.6 76.258 68.125 76.258H72.03C72.55 76.258 72.94 75.8638 72.94 75.3331V69.9351H76.33C77.76 69.9351 78.255 70.4607 78.675 71.2543L80.885 75.3331C81.175 75.8638 81.54 76.258 82.58 76.258H86.62C87.27 76.258 87.48 75.7273 87.27 75.3331L85.055 71.2543C83.755 68.8838 82.58 68.3582 82.58 68.3582V68.0953ZM72.94 65.7249V62.0352H77.63C79.325 62.0352 80.105 62.8288 80.105 63.8801C80.105 64.9314 79.325 65.7249 77.63 65.7249H72.94Z"/>
<path d="M106.625 58.7449C106.625 58.2192 106.235 57.825 105.715 57.825H89.0399C88.5199 57.825 88.1299 58.2192 88.1299 58.7449V61.3782C88.1299 61.9038 88.5199 62.2981 89.0399 62.2981H94.5099V75.3331C94.5099 75.8638 94.8999 76.258 95.4249 76.258H99.3299C99.8499 76.258 100.24 75.8638 100.24 75.3331V62.2981H105.715C106.235 62.2981 106.625 61.9038 106.625 61.3782V58.7449Z"/>
<path d="M120.43 58.7449C120.43 58.2192 120.04 57.825 119.52 57.825H108.84C108.32 57.825 107.925 58.2192 107.925 58.7449V61.3782C107.925 61.9038 108.32 62.2981 108.84 62.2981H111.315V71.7799H108.84C108.32 71.7799 107.925 72.1742 107.925 72.6998V75.3331C107.925 75.8638 108.32 76.258 108.84 76.258H119.52C120.04 76.258 120.43 75.8638 120.43 75.3331V72.6998C120.43 72.1742 120.04 71.7799 119.52 71.7799H117.045V62.2981H119.52C120.04 62.2981 120.43 61.9038 120.43 61.3782V58.7449Z"/>
<path d="M140.49 58.7449C140.49 58.2192 140.1 57.825 139.58 57.825H124.21C123.685 57.825 123.295 58.2192 123.295 58.7449V75.3331C123.295 75.8638 123.685 76.258 124.21 76.258H128.115C128.635 76.258 129.025 75.8638 129.025 75.3331V70.1979H137.235C137.755 70.1979 138.145 69.8037 138.145 69.278V66.6448C138.145 66.1191 137.755 65.7249 137.235 65.7249H129.025V62.2981H139.58C140.1 62.2981 140.49 61.9038 140.49 61.3782V58.7449Z"/>
<path d="M162.345 58.7449C162.605 58.3507 162.345 57.825 161.695 57.825H157.655C156.875 57.825 156.33 58.3507 156.095 58.7449L152.185 65.1942H151.925L148.02 58.7449C147.785 58.3507 147.235 57.825 146.455 57.825H142.415C141.765 57.825 141.505 58.3507 141.765 58.7449L149.19 70.4607V75.3331C149.19 75.8638 149.58 76.258 150.1 76.258H154.01C154.53 76.258 154.92 75.8638 154.92 75.3331V70.4607L162.345 58.7449Z"/>
<path d="M54.7274 40.5246C54.7274 41.4318 53.9997 42.1675 53.101 42.1675H48.266C47.3686 42.1675 46.6396 41.4318 46.6396 40.5246V2.1327C46.6396 1.22431 47.3686 0.488647 48.266 0.488647H53.101C53.9985 0.488647 54.7274 1.22431 54.7274 2.1327V40.5246Z"/>
<path d="M44.8245 37.9879C44.8245 38.7743 44.2163 39.4145 43.4646 39.4145H39.4219C38.6703 39.4145 38.062 38.7755 38.062 37.9879V4.66824C38.062 3.88064 38.6703 3.24162 39.4219 3.24162H43.4646C44.2151 3.24162 44.8245 3.88064 44.8245 4.66824V37.9879Z"/>
<path d="M36.3949 34.1888C36.3949 34.7976 35.8942 35.2892 35.2752 35.2892H31.9459C31.3281 35.2892 30.8262 34.7976 30.8262 34.1888V8.46734C30.8262 7.85972 31.3269 7.36566 31.9459 7.36566H35.2764C35.8954 7.36566 36.3961 7.85852 36.3961 8.46734V34.1888H36.3949Z"/>
<path d="M29.3862 27.0424C29.3862 27.313 29.0217 27.5328 28.5724 27.5328H26.1549C25.7068 27.5328 25.3423 27.3118 25.3423 27.0424V15.6137C25.3423 15.3431 25.7068 15.1245 26.1549 15.1245H28.5724C29.0217 15.1245 29.3862 15.3431 29.3862 15.6137V27.0424Z"/>
<path d="M109.615 22.0414C109.615 22.9473 108.887 23.6842 107.988 23.6842H52.906C52.0085 23.6842 51.2808 22.9486 51.2808 22.0414V18.2254C51.2808 17.3182 52.0085 16.5813 52.906 16.5813H107.987C108.886 16.5813 109.613 17.317 109.613 18.2254V22.0414H109.615Z"/>
<path d="M107.399 40.5246C107.399 41.4318 108.126 42.1675 109.023 42.1675H113.86C114.757 42.1675 115.486 41.4318 115.486 40.5246V2.1327C115.486 1.22551 114.757 0.488647 113.86 0.488647H109.023C108.126 0.488647 107.399 1.22431 107.399 2.1327V4.53537V40.5246Z"/>
<path d="M117.302 37.9879C117.302 38.7743 117.911 39.4145 118.661 39.4145H122.704C123.456 39.4145 124.065 38.7755 124.065 37.9879V4.66824C124.065 3.88064 123.456 3.24162 122.704 3.24162H118.661C117.911 3.24162 117.302 3.88064 117.302 4.66824V37.9879Z"/>
<path d="M125.743 34.1888C125.743 34.7976 126.243 35.2892 126.861 35.2892H130.193C130.811 35.2892 131.313 34.7976 131.313 34.1888V8.46734C131.313 7.85972 130.811 7.36566 130.193 7.36566H126.861C126.243 7.36566 125.743 7.85852 125.743 8.46734V34.1888Z"/>
<path d="M132.917 27.0424C132.917 27.313 133.282 27.5328 133.732 27.5328H136.15C136.599 27.5328 136.963 27.3118 136.963 27.0424V15.6137C136.963 15.3431 136.599 15.1245 136.15 15.1245H133.732C133.282 15.1245 132.917 15.3431 132.917 15.6137V27.0424Z"/>
</svg>